<?xml version="1.0" encoding="UTF-8"?>
<svg width="23px" height="37px" viewBox="0 0 23 37" version="1.1" xmlns="http://www.w3.org/2000/svg" xmlns:xlink="http://www.w3.org/1999/xlink">
    <!-- Generator: Sketch 57.1 (83088) - https://sketch.com -->
    <title>Group 22</title>
    <desc>Created with Sketch.</desc>
    <g id="Page-1" stroke="none" stroke-width="1" fill="none" fill-rule="evenodd">
        <g id="Electricity1-Copy-13" transform="translate(-307.000000, -143.000000)">
            <g id="Group-22" transform="translate(308.000000, 143.000000)">
                <g id="Group-21">
                    <g id="Group-16" transform="translate(10.500000, 19.421053) rotate(180.000000) translate(-10.500000, -19.421053) translate(0.000000, 2.921053)">
                        <path d="M20.6879196,9.39553984 C20.7552508,5.39305469 17.9392473,1.80540892 13.7085435,0.503672679 C9.47783982,-0.798063564 4.79129403,0.481138748 2.09308725,3.67413536 C-0.605119535,6.86713198 -0.703458415,11.2502535 1.84935743,14.5375641 C3.73251622,16.9547363 4.76883539,19.8187763 4.82628702,22.764803 L4.82628702,26.1174028 L15.9754056,26.1174028 L15.9754056,22.7339508 C15.9758821,19.8225715 16.9792552,16.9820749 18.8488897,14.5992684 C20.0410722,13.0732638 20.6828123,11.2573926 20.6879196,9.39553984 Z" id="Path" fill-rule="nonzero"></path>
                        <path d="M4.80329915,26.0865507 L15.9409238,26.0865507 L15.9409238,30.395567 C15.9409238,31.3270416 15.096978,32.082151 14.0559182,32.082151 L6.68830476,32.082151 C5.64724491,32.082151 4.80329915,31.3270416 4.80329915,30.395567 L4.80329915,26.0865507 Z" id="Path" fill-rule="nonzero"></path>
                        <path d="M15.9754056,26.36422 L15.9754056,22.7339508 C15.9758821,19.8225715 16.9792552,16.9820749 18.8488897,14.5992684 C21.1026907,11.6218723 21.2250528,7.74595433 19.1626875,4.65947419 C17.1003222,1.57299405 13.2265768,-0.165306849 9.22846476,0.201600404 C4.48605079,0.702555943 0.743184215,4.04293686 0.171242679,8.28486259 C-0.112414358,10.4550632 0.482981724,12.6443351 1.84935743,14.4552917 C3.73251622,16.8724639 4.76883539,19.7365039 4.82628702,22.6825306 L4.82628702,26.3127998 L10.826122,26.3127998" id="Path" stroke="#979797" stroke-width="1.2" stroke-linecap="round" stroke-linejoin="round"></path>
                        <path d="M15.9754056,26.3436519 L15.9754056,30.0253413 C15.9754056,31.1612859 14.9462034,32.082151 13.6766182,32.082151 L7.12507435,32.082151 C5.85548917,32.082151 4.82628702,31.1612859 4.82628702,30.0253413 L4.82628702,26.3436519" id="Path" stroke="#979797" stroke-width="1.2" stroke-linecap="round" stroke-linejoin="round"></path>
                        <ellipse id="Oval" fill="#979797" fill-rule="nonzero" cx="10.4813039" cy="12.2853575" rx="2.25281158" ry="2.01567352"></ellipse>
                        <path d="M14.4696999,26.3436519 L15.9754056,26.3436519" id="Path" stroke="#979797" stroke-width="1.2" stroke-linecap="round" stroke-linejoin="round"></path>
                        <path d="M10.4927978,21.9729313 L10.4927978,11.6066103" id="Path" stroke="#979797" stroke-width="1.2" fill="#FFFFFF" fill-rule="nonzero" stroke-linecap="round" stroke-linejoin="round"></path>
                        <path d="M8.03309535,29.2129015 L12.7111276,29.2129015" id="Path" stroke="#979797" stroke-width="1.2" stroke-linecap="round" stroke-linejoin="round"></path>
                    </g>
                    <path d="M8.65294118,3.92105263 L12.5941176,3.92105263 L12.5941176,2.47058824 C12.5941176,1.3822624 11.7118552,0.5 10.6235294,0.5 C9.53520358,0.5 8.65294118,1.3822624 8.65294118,2.47058824 L8.65294118,3.92105263 Z" id="Rectangle" stroke="#979797"></path>
                </g>
            </g>
        </g>
    </g>
</svg>